#N canvas 857 591 1039 653 12;
#X obj 652 487 adsr, f 40;
#X msg 929 448 1000;
#X text 704 422 peak;
#X text 759 423 attack;
#X text 814 423 decay;
#X text 869 423 sustain;
#X text 924 425 release;
#X floatatom 438 373 7 0.01 1000 0 - - -;
#X obj 438 417 line~;
#X obj 438 395 pack 0 30;
#X obj 386 483 moog~, f 8;
#X obj 438 234 vsl 15 128 0 11 0 0 empty empty empty 0 -9 0 10 -262130
-1 -1 3100 1;
#X obj 385 554 dac~ 1;
#X text 421 207 Filter Q;
#X obj 265 304 phasor~;
#X obj 265 359 -~ 0.5;
#X obj 265 127 vsl 15 128 1 1000 0 0 empty empty empty 0 -9 0 10 -204786
-1 -1 262 1;
#X floatatom 265 263 5 0 0 0 - - -;
#X text 233 106 Oscillator Pitch;
#X obj 58 173 bng 15 250 50 0 empty empty empty 17 7 0 10 -262144 -1
-1;
#X msg 144 188 1, f 7;
#X msg 92 243 0;
#X obj 58 204 delay 555;
#X obj 92 288 s note;
#X obj 652 447 r note;
#X obj 386 508 *~;
#X obj 411 156 adsr, f 40;
#X text 463 91 peak;
#X text 518 92 attack;
#X text 573 92 decay;
#X text 628 92 sustain;
#X text 683 94 release;
#X msg 577 116 10;
#X obj 411 115 r note;
#X msg 466 116 3333;
#X msg 688 117 333;
#X msg 632 117 11, f 4;
#X msg 707 447 4;
#X msg 818 447 222;
#X msg 873 448 88, f 4;
#X floatatom 503 24 5 0 0 0 - - -;
#X msg 522 115 333;
#X msg 763 446 222;
#X connect 0 0 25 1;
#X connect 1 0 0 5;
#X connect 7 0 9 0;
#X connect 8 0 10 2;
#X connect 9 0 8 0;
#X connect 10 0 25 0;
#X connect 11 0 7 0;
#X connect 14 0 15 0;
#X connect 15 0 10 0;
#X connect 16 0 17 0;
#X connect 17 0 14 0;
#X connect 19 0 20 0;
#X connect 19 0 22 0;
#X connect 20 0 23 0;
#X connect 21 0 23 0;
#X connect 22 0 21 0;
#X connect 24 0 0 0;
#X connect 25 0 12 0;
#X connect 26 0 10 1;
#X connect 32 0 26 3;
#X connect 33 0 26 0;
#X connect 34 0 26 1;
#X connect 35 0 26 5;
#X connect 36 0 26 4;
#X connect 37 0 0 1;
#X connect 38 0 0 3;
#X connect 39 0 0 4;
#X connect 40 0 26 1;
#X connect 41 0 26 2;
#X connect 42 0 0 2;
