#N canvas 579 324 641 326 10;
#X obj 12 13 loadbang;
#X obj 173 12 loadbang;
#X obj 173 106 print Second argument;
#X obj 173 62 i \$2;
#X obj 12 129 print First argument;
#X obj 12 91 fromsymbol;
#X obj 12 53 symbol \$1;
#X connect 0 0 6 0;
#X connect 1 0 3 0;
#X connect 3 0 2 0;
#X connect 5 0 4 0;
#X connect 6 0 5 0;
