#N canvas 882 223 492 587 10;
#X obj 51 44 osc~ 0.1;
#X obj 51 92 snapshot~;
#X obj 162 21 tgl 15 0 empty empty empty 17 7 0 10 -262144 -1 -1 1
1;
#X obj 51 134 vsl 15 128 -1 1 0 0 empty empty empty 0 -9 0 10 -262144
-1 -1 11313 1;
#X obj 162 43 metro 10;
#X connect 0 0 1 0;
#X connect 1 0 3 0;
#X connect 2 0 4 0;
#X connect 4 0 1 0;
