#N canvas 0 1110 1920 984 12;
#X obj 14 37 cnv 20 333 333 empty empty empty 20 12 0 12 #e0e0e0 #404040 0;
#X obj 38 78 netreceive -u -b 9000;
#X text 34 338 Send X and Y coordinate internally.;
#X text 36 51 Receive position (OSC) from Python script.;
#X floatatom 38 288 5 0 0 0 - - - 0;
#X floatatom 77 288 5 0 0 0 - - - 0;
#X obj 38 312 s X;
#X obj 77 312 s Y;
#X obj 38 222 route pos;
#X obj 38 247 unpack;
#X obj 38 104 oscparse;
#X obj 38 129 route list;
#X floatatom 119 247 5 0 0 0 - - - 0;
#X obj 119 271 s SIZE;
#X obj 38 154 route hand;
#X obj 38 192 route right;
#X obj 119 222 print;
#X obj 370 37 cnv 20 333 333 empty empty empty 20 12 0 12 #e0e0e0 #404040 0;
#X obj 442 242 *~ 0.1;
#X obj 442 217 phasor~ 100;
#X obj 540 281 bob~, f 14;
#X floatatom 399 217 5 0 0 0 - - - 0;
#X obj 588 135 abs;
#X obj 588 189 line~ 100;
#X obj 540 312 dac~ 1;
#X obj 442 75 r Y;
#X obj 588 164 * 10000;
#X obj 588 110 r X;
#X text 385 49 Receive and process Y.;
#X text 534 84 Receive and process X.;
#X obj 456 103 -;
#X msg 422 103 1;
#X msg 456 128 \$1 100;
#X obj 442 155 line;
#X obj 442 185 * 500;
#X obj 635 249 sig~;
#X msg 635 224 3;
#X connect 1 0 10 0;
#X connect 4 0 6 0;
#X connect 5 0 7 0;
#X connect 8 0 9 0;
#X connect 9 0 4 0;
#X connect 9 1 5 0;
#X connect 10 0 11 0;
#X connect 11 0 14 0;
#X connect 12 0 13 0;
#X connect 14 0 15 0;
#X connect 15 0 8 0;
#X connect 15 0 16 0;
#X connect 18 0 20 0;
#X connect 19 0 18 0;
#X connect 20 0 24 0;
#X connect 22 0 26 0;
#X connect 23 0 20 1;
#X connect 25 0 30 1;
#X connect 25 0 31 0;
#X connect 26 0 23 0;
#X connect 26 0 36 0;
#X connect 27 0 22 0;
#X connect 30 0 32 0;
#X connect 31 0 30 0;
#X connect 32 0 33 0;
#X connect 33 0 34 0;
#X connect 34 0 19 0;
#X connect 34 0 21 0;
#X connect 35 0 20 2;
#X connect 36 0 35 0;
#X coords 0 492 1 491 85 60 0;
