#N canvas 296 228 635 576 10;
#X msg 109 14 port 6666;
#X obj 109 37 udpreceive;
#X obj 109 60 unpackOSC;
#X obj 37 102 print;
#X obj 109 159 osc~;
#X obj 109 242 dac~;
#X obj 217 210 bng 15 250 50 0 empty empty empty 17 7 0 10 -262144
-1 -1;
#X text 215 261 activate audio;
#X msg 217 232 \; pd dsp 1;
#X obj 109 113 routeOSC /oscillator/frequency;
#X connect 0 0 1 0;
#X connect 1 0 2 0;
#X connect 2 0 3 0;
#X connect 2 0 9 0;
#X connect 4 0 5 0;
#X connect 6 0 8 0;
#X connect 9 0 4 0;
