#N canvas 904 782 464 368 10;
#X obj 22 63 oscparse;
#X obj 22 39 netreceive -u -b;
#X msg 22 13 listen 6666;
#X obj 22 87 list trim;
#X obj 22 111 route oscillator;
#X obj 22 136 route frequency;
#X floatatom 22 160 5 0 0 0 - - -, f 5;
#X connect 0 0 3 0;
#X connect 1 0 0 0;
#X connect 2 0 1 0;
#X connect 3 0 4 0;
#X connect 4 0 5 0;
#X connect 5 0 6 0;
