#N canvas 232 299 543 431 10;
#X obj 19 113 list trim;
#X obj 19 86 list prepend send;
#X floatatom 19 21 5 0 0 0 - - -, f 5;
#X msg 96 126 connect localhost 6666;
#X msg 96 150 disconnect;
#X obj 19 54 oscformat oscillator frequency;
#X obj 19 179 netsend -u -b;
#X connect 0 0 6 0;
#X connect 1 0 0 0;
#X connect 2 0 5 0;
#X connect 3 0 6 0;
#X connect 4 0 6 0;
#X connect 5 0 1 0;
