#N canvas 1000 253 543 439 10;
#X obj 9 185 udpsend;
#X obj 9 87 packOSC;
#X msg 9 48 /oscillator/frequency \$1;
#X floatatom 9 10 5 0 0 0 - - -, f 5;
#X msg 116 125 connect localhost 6666;
#X msg 116 152 disconnect;
#X connect 1 0 0 0;
#X connect 2 0 1 0;
#X connect 3 0 2 0;
#X connect 4 0 0 0;
#X connect 5 0 0 0;
