#N canvas 385 271 585 665 10;
#N canvas 879 119 470 669 filter-subpatch 0;
#X obj 15 7 inlet~;
#X obj 76 6 inlet;
#X obj 14 301 outlet~;
#X obj 169 260 outlet;
#X obj 134 90 vsl 15 128 50 5000 0 0 empty empty empty 0 -9 0 10 -262144
-1 -1 1701 1;
#X obj 15 260 moog~;
#X obj 30 115 tgl 15 0 empty empty empty 17 7 0 10 -262144 -1 -1 1
1;
#X obj 15 146 *~;
#X text 19 94 On/Off;
#X text 115 65 LP Cutoff;
#X connect 0 0 7 0;
#X connect 1 0 5 2;
#X connect 4 0 5 1;
#X connect 4 0 3 0;
#X connect 5 0 2 0;
#X connect 6 0 7 1;
#X connect 7 0 5 0;
#X coords 0 -1 1 1 200 200 1 10 30;
#X restore 41 66 pd filter-subpatch;
#X obj 41 30 phasor~ 80;
#X obj 41 283 dac~;
#X floatatom 234 32 5 0 0 0 - - -, f 5;
#X floatatom 233 280 5 0 0 0 - - -, f 5;
#X text 233 9 LP Q;
#X connect 0 0 2 0;
#X connect 0 1 4 0;
#X connect 1 0 0 0;
#X connect 3 0 0 1;
