#N canvas 2848 350 915 573 10;
#N canvas 2761 144 676 432 subpatch 0;
#X obj 64 44 r~ value;
#X obj 220 47 r~ \$0-localvalue;
#X obj 64 63 dac~ 1;
#X obj 220 66 dac~ 2;
#X text 63 21 To left output;
#X text 218 22 To right output;
#X connect 0 0 2 0;
#X connect 1 0 3 0;
#X coords 0 -1 1 1 85 60 1 100 100;
#X restore 266 64 pd subpatch;
#X obj 261 208 send-receive;
#X text 181 26 Subpatches receive global and local sends;
#X text 190 178 Abstractions do not receive local sends;
#X text 38 23 A global send;
#X text 39 163 A local send;
#X obj 57 94 s~ value;
#X obj 57 229 s~ \$0-localvalue;
#X obj 57 194 osc~ 234;
#X obj 57 51 osc~ 345;
#X connect 8 0 7 0;
#X connect 9 0 6 0;
