#N canvas 1459 333 460 390 10;
#X obj 24 18 hsl 128 15 0 1000 0 0 empty empty empty -2 -8 0 10 -257985
-1 -1 0 1;
#X obj 21 74 osc~;
#X obj 12 163 dac~;
#X obj 21 117 *~;
#X obj 83 61 tgl 15 0 empty empty empty 17 7 0 10 -262144 -1 -1 0 1
;
#X obj 128 120 bng 15 250 50 0 empty empty empty 17 7 0 10 -262144
-1 -1;
#X text 125 172 activate audio;
#X msg 128 142 \; pd dsp 1;
#X text 102 59 ON / OFF;
#X text 56 0 Frequency;
#X floatatom 35 41 5 0 0 0 - - -, f 5;
#X floatatom 83 78 5 0 0 0 - - -, f 5;
#X connect 0 0 1 0;
#X connect 0 0 10 0;
#X connect 1 0 3 0;
#X connect 3 0 2 0;
#X connect 3 0 2 1;
#X connect 4 0 3 1;
#X connect 4 0 11 0;
#X connect 5 0 7 0;
