#N canvas 0 93 1920 987 12;
#N canvas 0 93 1920 987 fft 0;
#X obj 49 61 inlet~;
#X obj 317 206 inlet;
#X obj 29 92 rfft~;
#X obj 29 125 *~;
#X obj 60 125 *~;
#X obj 29 155 sqrt~;
#X obj 332 109 block~ 4096 1;
#X obj 29 181 biquad~ 0 0 0 0 1;
#X text 93 93 Fourier series;
#X text 98 146 magnitude;
#X text 96 131 calculate;
#X text 113 61 signal to analyze;
#X text 302 158 delay two samples;
#X text 300 176 for better graphing;
#X obj 340 230 inlet;
#X obj 29 205 /~ 4096;
#X msg 318 316 \; pd dsp 1;
#X obj 340 253 metro 10;
#X obj 340 292 tabwrite~ spectrum;
#X obj 56 421 tabwrite~ waveform;
#X connect 0 0 2 0;
#X connect 0 0 19 0;
#X connect 1 0 16 0;
#X connect 1 0 18 0;
#X connect 1 0 19 0;
#X connect 2 0 3 0;
#X connect 2 0 3 1;
#X connect 2 1 4 0;
#X connect 2 1 4 1;
#X connect 3 0 5 0;
#X connect 4 0 5 0;
#X connect 5 0 7 0;
#X connect 7 0 15 0;
#X connect 14 0 16 0;
#X connect 14 0 17 0;
#X connect 15 0 18 0;
#X connect 17 0 18 0;
#X restore 361 740 pd fft;
#X obj 400 635 tgl 18 0 empty empty empty 0 -6 0 8 -262144 -1 -1 0
1;
#N canvas 0 93 1920 987 (subpatch) 0;
#X array waveform 259 float 0;
#X coords 0 -1 258 1 600 400 1 0 0;
#X restore 783 53 graph;
#X text 425 631 toggle to plot;
#X obj 361 367 phasor~;
#X floatatom 361 335 5 0 0 0 - - -;
#X obj 361 403 -~ 0.5;
#X floatatom 269 342 5 0 0 0 - - -;
#X obj 269 374 osc~;
#N canvas 0 93 1920 987 (subpatch) 0;
#X array spectrum 259 float 0;
#X coords 0 0.51 258 -0.008 600 400 1 0 0;
#X restore 784 506 graph;
#X obj 382 595 bng 15 250 50 0 empty empty empty 17 7 0 10 -262144
-1 -1;
#X obj 137 518 fexpr~ $x1 > 0;
#X obj 260 519 fexpr~ $x1 > 0;
#X obj 262 422 delwrite~ z;
#X obj 259 489 delread~ z;
#X obj 487 399 samplerate~;
#X obj 485 373 bng 15 250 50 0 empty empty empty 17 7 0 10 -262144
-1 -1;
#X obj 489 475 /;
#X msg 463 445 1;
#X floatatom 489 499 12 0 0 0 - - -;
#X obj 147 573 expr~ $v1 != $v2;
#X connect 1 0 0 2;
#X connect 4 0 6 0;
#X connect 5 0 4 0;
#X connect 7 0 8 0;
#X connect 8 0 11 0;
#X connect 8 0 13 0;
#X connect 10 0 0 1;
#X connect 11 0 20 0;
#X connect 12 0 20 1;
#X connect 14 0 12 0;
#X connect 15 0 18 0;
#X connect 15 0 17 1;
#X connect 16 0 15 0;
#X connect 17 0 19 0;
#X connect 18 0 17 0;
#X connect 19 0 14 0;
