#N canvas 0 93 1920 987 12;
#X obj 147 292 phasor~;
#N canvas 1065 401 558 609 fft 0;
#X obj 19 61 inlet~;
#X obj 208 212 inlet;
#X obj 29 92 rfft~;
#X obj 29 125 *~;
#X obj 60 125 *~;
#X obj 29 155 sqrt~;
#X obj 332 109 block~ 4096 1;
#X obj 29 181 biquad~ 0 0 0 0 1;
#X text 93 93 Fourier series;
#X text 98 146 magnitude;
#X text 96 131 calculate;
#X text 21 3 This subpatch computes the spectrum of the incoming signal
with a (rectangular windowed) FFT. FFTs aren't properly introduced
until much later.;
#X text 83 61 signal to analyze;
#X text 193 164 delay two samples;
#X text 191 182 for better graphing;
#X obj 19 459 samplerate~;
#X obj 19 436 bng 18 250 50 0 empty empty empty 0 -6 0 8 -262144 -1
-1;
#X floatatom 19 506 5 0 0 0 - - -;
#X obj 19 482 / 256;
#X obj 19 412 loadbang;
#X obj 75 528 s fundamental;
#X text 17 359 At load time \, calculate a good choice of fundamental
frequency for showing spectra: the 16th bin in a 4096-point spectrum
\, so SR*16/4096 or SR/256.;
#X obj 231 236 inlet;
#X text 284 234 toggle to graph repeatedly;
#X text 262 212 bang to graph once;
#X obj 19 295 tabwrite~ E09-signal;
#X obj 231 298 tabwrite~ E09-spectrum;
#X obj 19 528 t b f;
#X msg 19 551 \; cm 6;
#X text 25 585 set carrier multiplier after fundamental;
#X obj 29 205 /~ 4096;
#X msg 209 322 \; pd dsp 1;
#X obj 231 259 metro 10;
#X connect 0 0 2 0;
#X connect 0 0 25 0;
#X connect 1 0 25 0;
#X connect 1 0 26 0;
#X connect 1 0 31 0;
#X connect 2 0 3 0;
#X connect 2 0 3 1;
#X connect 2 1 4 0;
#X connect 2 1 4 1;
#X connect 3 0 5 0;
#X connect 4 0 5 0;
#X connect 5 0 7 0;
#X connect 7 0 30 0;
#X connect 15 0 18 0;
#X connect 16 0 15 0;
#X connect 17 0 27 0;
#X connect 18 0 17 0;
#X connect 19 0 16 0;
#X connect 22 0 31 0;
#X connect 22 0 32 0;
#X connect 27 0 28 0;
#X connect 27 1 20 0;
#X connect 30 0 26 0;
#X connect 32 0 25 0;
#X connect 32 0 26 0;
#X restore 193 594 pd fft;
#X obj 253 573 bng 18 250 50 0 empty empty empty 0 -6 0 8 -262144 -1
-1;
#X obj 253 594 tgl 18 0 empty empty empty 0 -6 0 8 -262144 -1 -1 0
1;
#X text 274 593 <-- repeatedly;
#X text 275 573 <-- graph once;
#N canvas 0 0 450 300 (subpatch) 0;
#X array E09-signal 882 float 0;
#X coords 0 -1 882 1 600 400 1 0 0;
#X restore 797 71 graph;
#N canvas 0 93 1920 987 (subpatch) 0;
#X array E09-spectrum 259 float 0;
#X coords 0 0.51 258 -0.008 600 400 1 0 0;
#X restore 798 507 graph;
#X obj 147 372 lop~;
#X floatatom 281 285 5 0 0 0 - - -;
#X floatatom 141 238 5 0 0 0 - - -;
#X obj 147 317 -~ 0;
#X connect 0 0 11 0;
#X connect 2 0 1 1;
#X connect 3 0 1 2;
#X connect 8 0 1 0;
#X connect 9 0 8 1;
#X connect 10 0 0 0;
#X connect 11 0 8 0;
