#N canvas 2700 189 618 765 10;
#X obj 23 60 throw~ mysignal;
#X obj 127 261 catch~ mysignal;
#X obj 23 13 osc~ 123;
#X obj 127 323 dac~ 1;
#X obj 127 292 *~ 0.2;
#X obj 179 60 throw~ mysignal;
#X obj 179 13 osc~ 234;
#X obj 23 153 throw~ mysignal;
#X obj 23 106 osc~ 345;
#X obj 179 153 throw~ mysignal;
#X obj 179 106 osc~ 456;
#X connect 1 0 4 0;
#X connect 2 0 0 0;
#X connect 4 0 3 0;
#X connect 6 0 5 0;
#X connect 8 0 7 0;
#X connect 10 0 9 0;
